<?xml version="1.0" encoding="UTF-8"?>
<svg viewBox="0 0 720 370" version="1.1" xmlns="http://www.w3.org/2000/svg" xmlns:xlink="http://www.w3.org/1999/xlink">
    <!-- Generator: Sketch 63.1 (92452) - https://sketch.com -->
    <title>Preview Pitch Final</title>
    <desc>Created with Sketch.</desc>
    <g id="Preview-Pitch-Final" stroke="none" stroke-width="1" fill="none" fill-rule="evenodd">
        <rect id="Pitch-Background" fill="#333333" x="0" y="0" width="720" height="370"></rect>
        <circle id="Centre-Circle" stroke="#565656" stroke-width="2" fill-opacity="0" fill="#2C4815" cx="360" cy="185" r="45"></circle>
        <circle id="Oval" fill="#565656" cx="360.5" cy="185.5" r="3.5"></circle>
        <g id="Home-Goal-Lines" transform="translate(0.000000, 105.000000)" stroke="#565656" stroke-width="2">
            <g id="Group" transform="translate(59.000000, 53.000000)" fill="#2C4815" fill-opacity="0">
                <path d="M1.33015303,1.04029988 L1.39556976,52.9529068 C7.24626507,52.5568174 12.500461,49.6865054 16.3583576,45.273782 C20.4706691,40.5700549 23,34.1157513 23,26.9987636 C23,19.8684571 20.4611931,13.4033031 16.3352499,8.69735157 C12.4651154,4.28316933 7.1953894,1.41861244 1.33015303,1.04029988 Z" id="Combined-Shape"></path>
            </g>
            <polyline id="Path-3" points="0 50 20 50 20 110 0 110"></polyline>
            <polyline id="Path-3" points="0 0 60 0 60 160 0 160"></polyline>
        </g>
        <g id="Away-Goal-Lines" transform="translate(678.500000, 185.000000) scale(-1, 1) rotate(-180.000000) translate(-678.500000, -185.000000) translate(637.000000, 105.000000)" stroke="#565656" stroke-width="2">
            <polyline id="Path-3" transform="translate(53.000000, 80.000000) rotate(-180.000000) translate(-53.000000, -80.000000) " points="23 0 83 0 83 160 23 160"></polyline>
            <polyline id="Path-3" transform="translate(73.000000, 80.000000) rotate(-180.000000) translate(-73.000000, -80.000000) " points="63 50 83 50 83 110 63 110"></polyline>
            <path d="M1.00755744,54.0245213 L1.3892443,105.953336 C7.24248242,105.558907 12.499082,102.68825 16.3583726,98.2741344 C20.4706734,93.5706348 23,87.1166439 23,80 C23,72.8056928 20.4151654,66.2884942 16.2231534,61.5724807 C12.292414,57.1503989 6.94528047,54.3140991 1.00755744,54.0245213 Z" id="Combined-Shape" fill-opacity="0" fill="#2C4815" transform="translate(12.000000, 80.000000) rotate(-180.000000) translate(-12.000000, -80.000000) "></path>
        </g>
        <line x1="360.5" y1="1" x2="360.5" y2="369" id="Line-10" stroke="#565656" stroke-width="2" stroke-linecap="square"></line>
    </g>
</svg>